<?xml version="1.0" encoding="UTF-8"?>
<svg width="86px" height="48px" viewBox="0 0 86 48" version="1.1" xmlns="http://www.w3.org/2000/svg" xmlns:xlink="http://www.w3.org/1999/xlink">
    <title>Logo</title>
    <g id="202012-Events" stroke="none" stroke-width="1" fill="none" fill-rule="evenodd">
        <g id="Events" transform="translate(-106.000000, -20.000000)" fill="#000000">
            <g id="Logo" transform="translate(106.000000, 20.000000)">
                <path d="M3.91442526,33.3978947 C2.72806737,33.3978947 1.78575158,33.1290947 1.08596211,32.592 C0.386677895,32.0559158 0.0249094737,31.2843789 0.000151578947,30.2789053 L2.18440421,30.2789053 C2.27383579,31.1555368 2.84730947,31.5936 3.90229895,31.5936 C4.29488842,31.5936 4.62836211,31.5142737 4.90272,31.3546105 C5.17657263,31.1959579 5.31349895,30.9539368 5.31349895,30.6275368 C5.31349895,30.4032 5.22760421,30.2167579 5.05581474,30.0661895 C4.88453053,29.9166316 4.70970947,29.8115368 4.53488842,29.7509053 C4.35855158,29.6912842 4.02507789,29.5957895 3.53396211,29.4669474 C3.51021474,29.4588632 3.49354105,29.4522947 3.48495158,29.4477474 C3.47686737,29.4437053 3.46423579,29.4401684 3.44857263,29.4356211 C3.43189895,29.4310737 3.41573053,29.4290526 3.39905684,29.4290526 C3.02314105,29.3345684 2.71392,29.2506947 2.47240421,29.1779368 C2.23139368,29.1046737 1.95703579,28.9930105 1.65034105,28.8424421 C1.34364632,28.6923789 1.10061474,28.5261474 0.920741053,28.3462737 C0.739856842,28.1664 0.586762105,27.9269053 0.459941053,27.6313263 C0.333625263,27.3352421 0.269962105,27.0022737 0.269962105,26.6329263 C0.269962105,25.6875789 0.590804211,24.9786947 1.23299368,24.5062737 C1.87568842,24.0338526 2.71594105,23.7978947 3.75476211,23.7978947 C4.75316211,23.7978947 5.56916211,24.0384 6.20326737,24.5189053 C6.83737263,25.0004211 7.17488842,25.7047579 7.21632,26.6329263 L5.09269895,26.6329263 C5.05126737,26.2807579 4.90827789,26.0084211 4.66322526,25.8149053 C4.41766737,25.6213895 4.09025684,25.5243789 3.68149895,25.5243789 C3.30457263,25.5243789 3.00040421,25.6037053 2.76697263,25.7623579 C2.53404632,25.9220211 2.41733053,26.1301895 2.41733053,26.3878737 C2.41733053,26.6799158 2.55627789,26.8926316 2.83417263,27.0255158 C3.11307789,27.1584 3.63653053,27.3160421 4.40604632,27.4954105 C4.88806737,27.6161684 5.28520421,27.7338947 5.59594105,27.8506105 C5.90667789,27.9663158 6.22347789,28.1325474 6.54735158,28.3462737 C6.87021474,28.5610105 7.11122526,28.8378947 7.27088842,29.1779368 C7.43004632,29.5164632 7.51038316,29.9226947 7.51038316,30.3951158 C7.51038316,31.3323789 7.17286737,32.0660211 6.49783579,32.5985684 C5.82280421,33.1316211 4.96133053,33.3978947 3.91442526,33.3978947" id="Fill-1"></path>
                <polygon id="Fill-3" points="8.96210526 33.1786105 8.96210526 23.9646316 15.6133895 23.9646316 15.6133895 25.8462316 11.1342316 25.8462316 11.1342316 27.4954105 14.9752421 27.4954105 14.9752421 29.2739368 11.1342316 29.2739368 11.1342316 31.2454737 15.6871579 31.2454737 15.2688 33.1786105"></polygon>
                <path d="M28.09824,33.1786105 L25.2020716,23.9646316 L27.4600926,23.9646316 L28.8344084,28.7974737 L29.2396295,30.4213895 L29.2638821,30.4213895 C29.4114189,29.7938526 29.5463242,29.2527158 29.6691032,28.7974737 L31.0312926,23.9646316 L33.2276716,23.9646316 L30.3436295,33.1786105 L28.09824,33.1786105 Z" id="Fill-5"></path>
                <path d="M44.7938526,28.0371537 L46.4258526,28.0371537 C46.8512842,28.0371537 47.1746526,27.9386274 47.3949474,27.7405642 C47.6162526,27.5435116 47.7274105,27.2681432 47.7274105,26.9159747 C47.7274105,26.5729011 47.6202947,26.2960168 47.4080842,26.0843116 C47.1948632,25.8746274 46.8841263,25.7690274 46.4748632,25.7690274 L44.7938526,25.7690274 L44.7938526,28.0371537 Z M42.6217263,33.1787116 L42.6217263,23.9647326 L46.8189474,23.9647326 C47.7188211,23.9647326 48.4549895,24.2001853 49.0274526,24.6675537 C49.6009263,25.1364379 49.8864,25.7862063 49.8864,26.6193853 C49.8864,27.7370274 49.3796211,28.4797642 48.3650526,28.8481011 L48.3650526,28.8875116 C49.1017263,29.1451958 49.5261474,29.7085642 49.6408421,30.5755958 C49.6903579,30.8767326 49.7262316,31.2481011 49.7459368,31.6902063 C49.7818105,32.4875116 50.0091789,33.1782063 50.0091789,33.1782063 L47.8249263,33.1787116 C47.7203368,32.8113853 47.6778947,32.3066274 47.6531368,31.9286905 C47.6283789,31.5512589 47.6000842,31.2541642 47.5677474,31.0399326 C47.4525474,30.1638063 46.9664842,29.7247326 46.1070316,29.7247326 L44.7938526,29.7247326 L44.7938526,33.1787116 L42.6217263,33.1787116 Z" id="Fill-7"></path>
                <path d="M73.8094989,33.3978947 C72.6226358,33.3978947 71.68032,33.1290947 70.9810358,32.592 C70.2817516,32.0559158 69.9194779,31.2843789 69.89472,30.2789053 L72.0789726,30.2789053 C72.1689095,31.1555368 72.7418779,31.5936 73.7973726,31.5936 C74.1899621,31.5936 74.5229305,31.5142737 74.7972884,31.3546105 C75.0711411,31.1959579 75.2085726,30.9539368 75.2085726,30.6275368 C75.2085726,30.4032 75.1226779,30.2167579 74.9508884,30.0661895 C74.7790989,29.9166316 74.6047832,29.8115368 74.4299621,29.7509053 C74.2536253,29.6912842 73.9201516,29.5957895 73.4285305,29.4669474 C73.4047832,29.4588632 73.3881095,29.4522947 73.3800253,29.4477474 C73.3719411,29.4437053 73.3588042,29.4401684 73.3431411,29.4356211 C73.3269726,29.4310737 73.3108042,29.4290526 73.2936253,29.4290526 C72.9177095,29.3345684 72.6084884,29.2506947 72.3674779,29.1779368 C72.1264674,29.1046737 71.8521095,28.9930105 71.5454147,28.8424421 C71.23872,28.6923789 70.9951832,28.5261474 70.8153095,28.3462737 C70.6349305,28.1664 70.4813305,27.9269053 70.3545095,27.6313263 C70.2281937,27.3352421 70.1645305,27.0022737 70.1645305,26.6329263 C70.1645305,25.6875789 70.4858779,24.9786947 71.1275621,24.5062737 C71.7707621,24.0338526 72.6110147,23.7978947 73.6498358,23.7978947 C74.6482358,23.7978947 75.4637305,24.0384 76.0983411,24.5189053 C76.7319411,25.0004211 77.0699621,25.7047579 77.1108884,26.6329263 L74.9872674,26.6329263 C74.9463411,26.2807579 74.8033516,26.0084211 74.5582989,25.8149053 C74.3127411,25.6213895 73.9853305,25.5243789 73.5760674,25.5243789 C73.1996463,25.5243789 72.8954779,25.6037053 72.6620463,25.7623579 C72.42912,25.9220211 72.3118989,26.1301895 72.3118989,26.3878737 C72.3118989,26.6799158 72.4513516,26.8926316 72.7292463,27.0255158 C73.0076463,27.1584 73.5310989,27.3160421 74.3006147,27.4954105 C74.7831411,27.6161684 75.1802779,27.7338947 75.4910147,27.8506105 C75.8017516,27.9663158 76.1185516,28.1325474 76.44192,28.3462737 C76.7652884,28.5610105 77.0062989,28.8378947 77.1659621,29.1779368 C77.32512,29.5164632 77.4054568,29.9226947 77.4054568,30.3951158 C77.4054568,31.3323789 77.0674358,32.0660211 76.3924042,32.5985684 C75.7178779,33.1316211 74.8564042,33.3978947 73.8094989,33.3978947" id="Fill-9"></path>
                <path d="M82.3382905,33.3978947 C81.1519326,33.3978947 80.2096168,33.1290947 79.5098274,32.592 C78.8105432,32.0559158 78.4487747,31.2843789 78.4240168,30.2789053 L80.6082695,30.2789053 C80.6982063,31.1555368 81.2711747,31.5936 82.3266695,31.5936 C82.7192589,31.5936 83.0522274,31.5142737 83.3265853,31.3546105 C83.6004379,31.1959579 83.7378695,30.9539368 83.7378695,30.6275368 C83.7378695,30.4032 83.6514695,30.2167579 83.4801853,30.0661895 C83.3083958,29.9166316 83.13408,29.8115368 82.9587537,29.7509053 C82.7829221,29.6912842 82.4494484,29.5957895 81.9578274,29.4669474 C81.93408,29.4588632 81.9174063,29.4522947 81.9093221,29.4477474 C81.9012379,29.4437053 81.8881011,29.4401684 81.8724379,29.4356211 C81.8562695,29.4310737 81.8395958,29.4290526 81.8229221,29.4290526 C81.4470063,29.3345684 81.1377853,29.2506947 80.8962695,29.1779368 C80.6552589,29.1046737 80.3814063,28.9930105 80.0742063,28.8424421 C79.7680168,28.6923789 79.52448,28.5261474 79.3446063,28.3462737 C79.1642274,28.1664 79.0106274,27.9269053 78.8838063,27.6313263 C78.7574905,27.3352421 78.6938274,27.0022737 78.6938274,26.6329263 C78.6938274,25.6875789 79.0151747,24.9786947 79.6568589,24.5062737 C80.2995537,24.0338526 81.1403116,23.7978947 82.1791326,23.7978947 C83.1775326,23.7978947 83.9930274,24.0384 84.6271326,24.5189053 C85.2612379,25.0004211 85.5987537,25.7047579 85.6401853,26.6329263 L83.5165642,26.6329263 C83.4756379,26.2807579 83.3326484,26.0084211 83.0870905,25.8149053 C82.8415326,25.6213895 82.5146274,25.5243789 82.1053642,25.5243789 C81.7289432,25.5243789 81.4242695,25.6037053 81.1908379,25.7623579 C80.9584168,25.9220211 80.8411958,26.1301895 80.8411958,26.3878737 C80.8411958,26.6799158 80.9801432,26.8926316 81.2580379,27.0255158 C81.5369432,27.1584 82.0603958,27.3160421 82.8299116,27.4954105 C83.3124379,27.6161684 83.7090695,27.7338947 84.0198063,27.8506105 C84.3305432,27.9663158 84.6473432,28.1325474 84.9712168,28.3462737 C85.2945853,28.5610105 85.5350905,28.8378947 85.6952589,29.1779368 C85.8544168,29.5164632 85.9342484,29.9226947 85.9342484,30.3951158 C85.9342484,31.3323789 85.5967326,32.0660211 84.9217011,32.5985684 C84.2466695,33.1316211 83.3857011,33.3978947 82.3382905,33.3978947" id="Fill-11"></path>
                <path d="M20.1975411,47.4485558 L17.3008674,38.2350821 L19.5593937,38.2350821 L20.9337095,43.0674189 L21.3389305,44.6913347 L21.3631832,44.6913347 C21.51072,44.0637979 21.64512,43.5226611 21.7678989,43.0674189 L23.1305937,38.2350821 L25.3269726,38.2350821 L22.4429305,47.4485558 L20.1975411,47.4485558 Z" id="Fill-13"></path>
                <path d="M29.6808758,47.6681432 C28.4945179,47.6681432 27.5522021,47.3993432 26.8524126,46.8622484 C26.1531284,46.3256589 25.79136,45.5541221 25.7666021,44.5491537 L27.9508547,44.5491537 C28.0402863,45.4257853 28.61376,45.8638484 29.6692547,45.8638484 C30.0613389,45.8638484 30.3948126,45.7840168 30.6691705,45.6248589 C30.9430232,45.4662063 31.0804547,45.2241853 31.0804547,44.89728 C31.0804547,44.6734484 30.9940547,44.4870063 30.8222653,44.3364379 C30.6509811,44.1863747 30.4766653,44.0817853 30.3013389,44.0211537 C30.1250021,43.9610274 29.7920337,43.8660379 29.3004126,43.7371958 C29.2766653,43.7291116 29.2599916,43.7220379 29.2519074,43.7179958 C29.2433179,43.7139537 29.2306863,43.7104168 29.2150232,43.7058695 C29.1983495,43.7013221 29.1821811,43.6993011 29.1655074,43.6993011 C28.7895916,43.6048168 28.4803705,43.5209432 28.2388547,43.4481853 C27.9978442,43.3744168 27.7234863,43.2632589 27.4167916,43.1126905 C27.1100968,42.9626274 26.8670653,42.7963958 26.6871916,42.6165221 C26.5063074,42.4361432 26.3532126,42.1971537 26.2263916,41.9010695 C26.1000758,41.6054905 26.0364126,41.2720168 26.0364126,40.9026695 C26.0364126,39.9578274 26.3572547,39.2489432 26.9994442,38.7765221 C27.6421389,38.3035958 28.4823916,38.0681432 29.5217179,38.0681432 C30.5201179,38.0681432 31.3356126,38.3081432 31.9697179,38.7891537 C32.6038232,39.2706695 32.9413389,39.9745011 32.9827705,40.9026695 L30.8591495,40.9026695 C30.8177179,40.5510063 30.6747284,40.2781642 30.4296758,40.0851537 C30.1841179,39.8916379 29.8572126,39.7946274 29.4479495,39.7946274 C29.0710232,39.7946274 28.7668547,39.8739537 28.5334232,40.0326063 C28.3004968,40.1922695 28.1837811,40.4004379 28.1837811,40.6576168 C28.1837811,40.9501642 28.3227284,41.16288 28.6006232,41.2952589 C28.8795284,41.4286484 29.4029811,41.5857853 30.1724968,41.7656589 C30.6545179,41.8864168 31.0516547,42.0041432 31.3623916,42.1208589 C31.6731284,42.2360589 31.9899284,42.4022905 32.3138021,42.6165221 C32.6366653,42.8307537 32.8776758,43.1081432 33.0373389,43.4481853 C33.1964968,43.7867116 33.2768337,44.1924379 33.2768337,44.6653642 C33.2768337,45.6021221 32.9393179,46.3362695 32.2642863,46.8688168 C31.5892547,47.4013642 30.7282863,47.6681432 29.6808758,47.6681432" id="Fill-15"></path>
                <path d="M2.58932211,45.5289095 L3.86561684,45.5289095 C4.56894316,45.5289095 5.10502737,45.3025516 5.47336421,44.8518568 C5.84170105,44.4011621 6.02511158,43.7503832 6.02511158,42.89952 C6.02511158,42.0496674 5.83715368,41.3776674 5.46123789,40.88352 C5.08431158,40.3888674 4.56085895,40.1428042 3.88986947,40.1428042 L2.58932211,40.1428042 L2.58932211,45.5289095 Z M0.417195789,47.4484042 L0.417195789,38.2349305 L4.16018526,38.2349305 C5.37888,38.2349305 6.36060632,38.6603621 7.10536421,39.5112253 C7.84961684,40.3610779 8.22199579,41.4913516 8.22199579,42.89952 C8.22199579,44.5582989 7.71521684,45.7956884 6.70014316,46.6111832 C5.98873263,47.1694989 5.09643789,47.4484042 4.02528,47.4484042 L0.417195789,47.4484042 Z" id="Fill-17"></path>
                <polygon id="Fill-19" points="54.26112 20.9629642 52.0601937 21.8977011 56.73792 33.3979958 58.9529937 32.4966063"></polygon>
                <polygon id="Fill-21" points="0.417296842 0.505212632 0.417296842 18.9326653 47.0647074 18.9326653 47.0647074 6.42639158 59.0414653 18.9326653 85.9330863 18.9326653 85.9330863 0.505212632"></polygon>
                <path d="M19.4552084,28.0371537 L21.0872084,28.0371537 C21.51264,28.0371537 21.8355032,27.9386274 22.0563032,27.7405642 C22.2776084,27.5435116 22.3882611,27.2681432 22.3882611,26.9159747 C22.3882611,26.5729011 22.2811453,26.2960168 22.06944,26.0843116 C21.8557137,25.8746274 21.5449768,25.7690274 21.1362189,25.7690274 L19.4552084,25.7690274 L19.4552084,28.0371537 Z M17.2830821,33.1787116 L17.2830821,23.9647326 L21.4797979,23.9647326 C22.3801768,23.9647326 23.1163453,24.2001853 23.6888084,24.6675537 C24.2617768,25.1364379 24.5477558,25.7862063 24.5477558,26.6193853 C24.5477558,27.7370274 24.0409768,28.4797642 23.0264084,28.8481011 L23.0264084,28.8875116 C23.7625768,29.1451958 24.1875032,29.7085642 24.3021979,30.5755958 C24.3517137,30.8767326 24.3870821,31.2481011 24.4067874,31.6902063 C24.4431663,32.4875116 24.6705347,33.1782063 24.6705347,33.1782063 L22.4862821,33.1787116 C22.3816926,32.8113853 22.3392505,32.3066274 22.3144926,31.9286905 C22.2892295,31.5512589 22.2609347,31.2541642 22.2291032,31.0399326 C22.1133979,30.1638063 21.6273347,29.7247326 20.7683874,29.7247326 L19.4552084,29.7247326 L19.4552084,33.1787116 L17.2830821,33.1787116 Z" id="Fill-23"></path>
                <polygon id="Fill-25" points="9.65562947 47.4426442 9.65562947 38.2286653 16.3069137 38.2286653 16.3069137 40.1102653 11.8277558 40.1102653 11.8277558 41.7594442 15.6687663 41.7594442 15.6687663 43.5379705 11.8277558 43.5379705 11.8277558 45.5095074 16.3806821 45.5095074 15.9623242 47.4426442"></polygon>
                <polygon id="Fill-27" points="34.3338442 33.1786105 34.3338442 23.9646316 40.9851284 23.9646316 40.9851284 25.8462316 36.5059705 25.8462316 36.5059705 27.4954105 40.3469811 27.4954105 40.3469811 29.2739368 36.5059705 29.2739368 36.5059705 31.2454737 41.0583916 31.2454737 40.6405389 33.1786105"></polygon>
                <polygon id="Fill-29" points="62.1094737 33.1786105 62.1094737 23.9646316 68.7607579 23.9646316 68.7607579 25.8462316 64.2816 25.8462316 64.2816 27.4954105 68.1226105 27.4954105 68.1226105 29.2739368 64.2816 29.2739368 64.2816 31.2454737 68.8345263 31.2454737 68.4161684 33.1786105"></polygon>
            </g>
        </g>
    </g>
</svg>